<svg id="Capa_1" enable-background="new 0 0 512 512" height="512" viewBox="0 0 512 512" width="512" xmlns="http://www.w3.org/2000/svg"><g><path d="m479.452 368.218c-4.897-13.455-14.741-24.197-27.716-30.249l.001-.002-68.893-32.125 29.364-13.689c18.81-8.771 30.963-27.853 30.963-48.613 0-7.863-1.691-15.476-5.026-22.626-6.053-12.979-16.798-22.823-30.256-27.72-11.915-4.335-24.693-4.323-36.475-.064.588-4.732.896-9.55.896-14.438 0-9.854-2.433-21.637-7.439-36.022-1.814-5.215-7.513-7.975-12.73-6.159-5.216 1.815-7.974 7.515-6.158 12.731 4.198 12.067 6.327 21.976 6.327 29.45 0 32.745-16.431 61.72-41.476 79.128 2.709-6.768 4.215-14.143 4.215-21.868 0-15.926-12.709-43.193-37.773-81.044-1.481-2.238-3.801-3.786-6.436-4.296-2.637-.511-5.364.06-7.575 1.582-15.808 10.888-24.574 28.063-29.392 42.591-1.53-1.891-3.175-3.745-4.789-5.587-2.166-2.446-5.395-3.678-8.637-3.303-3.245.376-6.103 2.314-7.652 5.19-10.66 19.786-15.842 34.462-15.842 44.866 0 7.724 1.506 15.099 4.215 21.868-25.045-17.409-41.476-46.384-41.476-79.128 0-10.515 4.322-30.878 23.765-69.257 6.865 8.429 13.104 17.26 19.179 25.858 3.605 5.1 10.175 7.63 16.348 6.298 5.744-1.238 10.008-5.613 11.126-11.416 5.072-26.315 18.355-72.628 51.469-100.706 10.317 15.857 19.75 31.118 28.108 45.479 2.776 4.773 8.898 6.391 13.673 3.613 4.773-2.778 6.391-8.9 3.612-13.673-10.111-17.375-21.75-36.017-34.591-55.408-1.482-2.238-3.801-3.786-6.436-4.296-2.635-.512-5.364.06-7.575 1.582-40.046 27.583-57.806 75.983-65.49 108.414-7.095-10.011-15.374-20.566-23.96-30.084-2.168-2.444-5.387-3.676-8.637-3.3-3.245.376-6.101 2.314-7.65 5.19-22.165 41.143-32.939 71.141-32.939 91.707 0 4.891.307 9.711.896 14.444-25.776-9.289-54.933 2.478-66.73 27.777-3.336 7.151-5.027 14.764-5.027 22.627 0 20.76 12.154 39.842 30.963 48.613l29.354 13.689-68.883 32.125.001.002c-12.976 6.052-22.82 16.794-27.716 30.249-4.898 13.456-4.263 28.014 1.789 40.992s16.796 22.822 30.251 27.72c5.984 2.178 12.184 3.261 18.368 3.261 7.72 0 15.414-1.69 22.619-5.049l.001.001 96.813-45.146v68.393h.001c-.003 29.561 24.045 53.61 53.606 53.61s53.609-24.049 53.609-53.609h.001v-68.394l96.813 45.147.001-.001c7.207 3.359 14.898 5.049 22.619 5.049 6.184 0 12.385-1.084 18.368-3.261 13.455-4.898 24.199-14.742 30.251-27.72 6.053-12.979 6.688-27.537 1.79-40.993zm-113.868-150.554 9.763-4.552c16.798-7.834 36.838-.542 44.671 16.255 2.092 4.484 3.152 9.252 3.152 14.172 0 13.02-7.621 24.987-19.415 30.486l-44.577 20.781-39.872-18.592c21.203-13.81 37.643-34.341 46.278-58.55zm-148.632 18.288c0-2.954 1.008-9.302 6.62-21.7 1.156 1.598 2.289 3.201 3.409 4.788 2.893 4.091 8.15 6.124 13.077 5.06 4.796-1.035 8.354-4.681 9.284-9.513 1.951-10.122 6.662-27.049 17.479-39.039 17.801 28.075 28.226 50.275 28.226 60.404.001 21.531-17.516 39.048-39.047 39.048s-39.048-17.517-39.048-39.048zm-128.122 7.588c0-4.92 1.061-9.688 3.153-14.174 7.831-16.795 27.872-24.089 44.671-16.253l9.762 4.551c16.06 45.022 59.116 77.336 109.584 77.336 14.269 0 27.944-2.589 40.586-7.311l108.845 50.754c-10.966 5.364-19.71 14.234-24.942 25.454-5.232 11.219-6.406 23.619-3.466 35.468l-268.777-125.338c-11.795-5.5-19.416-17.467-19.416-30.487zm-17.401 174.596c-8.436-3.07-15.171-9.242-18.965-17.378-7.832-16.796-.54-36.832 16.257-44.664 4.519-2.107 9.342-3.167 14.184-3.167 3.876 0 7.764.679 11.515 2.044 8.436 3.07 15.171 9.242 18.965 17.378 7.832 16.796.54 36.832-16.257 44.665-8.138 3.793-17.263 4.193-25.699 1.122zm63.548-18.771c2.94-11.849 1.766-24.249-3.466-35.468-5.232-11.221-13.977-20.092-24.945-25.456l46.242-21.566 49.582 23.121v27.933zm121.023 92.635c-18.532 0-33.609-15.077-33.609-33.609s15.077-33.609 33.609-33.609 33.609 15.077 33.609 33.609-15.077 33.609-33.609 33.609zm33.61-75.331c-9.201-7.427-20.892-11.887-33.61-11.887s-24.409 4.46-33.61 11.887v-67.346l67.221 31.347v35.999zm169.926-15.912c-3.794 8.136-10.529 14.308-18.965 17.378-8.435 3.069-17.562 2.672-25.698-1.122-16.797-7.832-24.089-27.869-16.257-44.665 3.794-8.136 10.529-14.308 18.965-17.378 3.751-1.365 7.638-2.044 11.515-2.044 4.841 0 9.666 1.06 14.184 3.167 16.796 7.832 24.088 27.868 16.256 44.664z"/><path d="m338.283 116.533c12.869 0 12.89-20 0-20-12.869 0-12.89 20 0 20z"/><path d="m191 60c16.542 0 30-13.458 30-30s-13.458-30-30-30-30 13.458-30 30 13.458 30 30 30zm0-40c5.514 0 10 4.486 10 10s-4.486 10-10 10-10-4.486-10-10 4.486-10 10-10z"/></g></svg>