<svg id="Capa_1" enable-background="new 0 0 512.001 512.001" height="512" viewBox="0 0 512.001 512.001" width="512" xmlns="http://www.w3.org/2000/svg"><g><path d="m351.006 253.664c12.869 0 12.89-20 0-20-12.869 0-12.89 20 0 20z"/><path d="m509.072 442.606c-3.905-3.904-10.237-3.904-14.143 0l-11.099 11.099c-16.213-28.064-83.594-144.773-101.069-175.041-2.762-4.783-8.878-6.423-13.66-3.66-4.783 2.761-6.422 8.878-3.66 13.66l73.985 128.142-21.592 43.184h-54.338l21.521-43.042c2.07-4.141 1.028-9.162-2.52-12.136l-116.497-97.65v-75.334c0-5.523-4.477-10-10-10s-10 4.477-10 10v75.334l-116.496 97.651c-3.548 2.974-4.591 7.995-2.521 12.136l21.521 43.042h-54.337l-21.592-43.184 183.425-317.694 63.251 109.551c2.762 4.783 8.876 6.421 13.66 3.66 4.783-2.761 6.422-8.877 3.66-13.66l-69.024-119.55 18.538-32.108c2.762-4.783 1.123-10.899-3.66-13.66-4.781-2.761-10.898-1.123-13.66 3.66l-12.765 22.108-12.765-22.109c-2.762-4.783-8.878-6.423-13.66-3.66-4.783 2.761-6.422 8.877-3.66 13.66l18.538 32.108s-216.283 374.598-216.283 374.598l-11.099-11.099c-3.905-3.904-10.237-3.904-14.143 0-3.905 3.905-3.905 10.237 0 14.143l20.313 20.314c1.888 1.887 4.437 2.929 7.071 2.929.434 0 .87-.028 1.306-.085 3.082-.406 5.8-2.222 7.355-4.914l21.617-37.437 18.451 36.902c1.694 3.388 5.157 5.528 8.944 5.528h336.027c3.788 0 7.25-2.14 8.944-5.528l18.453-36.906 21.616 37.434c1.555 2.692 4.273 4.508 7.355 4.914.436.057.872.085 1.306.085 2.634 0 5.183-1.042 7.071-2.929l20.314-20.313c3.906-3.906 3.906-10.238.001-14.143zm-162.389 6.289-53.708-93.026 70.622 59.198zm-16.688 11.096h-147.989l73.994-128.163zm-110.969-104.121-53.708 93.026-16.914-33.827z"/></g></svg>