<svg id="Capa_1" enable-background="new 0 0 510.999 510.999" height="512" viewBox="0 0 510.999 510.999" width="512" xmlns="http://www.w3.org/2000/svg"><g><path d="m505.127 177.226c-3.947-3.946-9.402-6.064-14.965-5.834-27.817 1.186-55.033 6.833-80.894 16.789-23.212 8.945-44.803 21.128-64.408 36.301-6.312-51.304-29.373-98.757-66.505-135.889l-8.825-8.825c-7.799-7.797-20.486-7.797-28.285 0l-8.825 8.825c-37.094 37.094-60.144 84.489-66.484 135.733-19.551-15.1-41.073-27.231-64.208-36.146-25.857-9.955-53.072-15.603-80.887-16.788-5.546-.237-11.021 1.888-14.969 5.834-3.96 3.959-6.094 9.438-5.854 15.031 2.733 64.084 29.267 124.404 74.71 169.848 48.162 48.187 112.223 74.813 180.383 74.975h.023c.123 0 .243-.014.365-.018.122.004.242.018.365.018h.024c17.737-.042 35.454-1.91 52.659-5.552 5.402-1.144 8.855-6.451 7.712-11.854-1.145-5.402-6.448-8.852-11.854-7.712-7.76 1.643-15.635 2.887-23.57 3.742 3.161-3.256 43.832-44.587 43.832-44.587.65.138 1.324.214 2.014.219l67.525.523c-3.508 2.561-7.082 5.03-10.721 7.39-4.634 3.006-5.954 9.198-2.949 13.832 1.915 2.952 5.124 4.56 8.4 4.56 1.864 0 3.751-.521 5.432-1.61 15.081-9.781 29.179-21.194 41.9-33.923 45.445-45.445 71.979-105.766 74.712-169.848.24-5.596-1.893-11.075-5.853-15.034zm-37.955 107.809-55.99-.434 78.741-78.741c-2.888 27.726-10.628 54.481-22.751 79.175zm-50.715-78.191c18.8-7.238 38.385-11.994 58.401-14.204l-76.105 76.105-.418-54.02c5.913-2.867 11.952-5.504 18.122-7.881zm-38.04 18.749.488 63-47.2 47.2c9.795-25.978 14.922-53.78 14.922-82.375 0-1.495-.027-2.985-.054-4.475 10.005-8.702 20.638-16.504 31.844-23.35zm-51.789 27.825c0 1.515-.024 3.026-.055 4.536l-61.073 60.134v-66.5l53.989-53.158c4.7 17.72 7.139 36.165 7.139 54.988zm-81.128 65.447-60.88-59.943c-.132-.13-.273-.244-.41-.365-.04-1.71-.062-3.423-.062-5.139 0-18.77 2.425-37.164 7.1-54.84l54.044 53.212c.067.066.14.122.209.186v66.889zm-.93 27.152c.296.291.609.553.93.8v56.196c-3.455-3.503-6.782-7.099-9.962-10.793-.291-.398-.606-.783-.964-1.144-24.81-29.221-41.041-64.109-47.395-101.566zm-58.238 25.099s40.085 40.957 43.583 44.562c-41.145-4.448-79.945-19.502-113.168-43.819l67.571-.524c.69-.005 1.364-.081 2.014-.219zm79.168-24.974c.046-.043.095-.081.141-.125l58.062-57.168c-7.131 42.854-27.173 82.378-58.202 113.934v-56.641zm47.119-169.016-47.119 46.394v-119.466c20.869 21.224 36.775 46.048 47.119 73.072zm-67.119-73.302v120.105l-47.395-46.665c10.379-27.174 26.379-52.13 47.395-73.44zm-66.563 231.612-46.843-46.843.488-63c11.123 6.795 21.682 14.531 31.622 23.155-.031 1.555-.057 3.11-.057 4.67 0 28.463 5.082 56.142 14.79 82.018zm-157.871-129.586 78.75 78.75-55.989.434c-12.122-24.692-19.865-51.449-22.761-79.184zm91.599 8.876-.418 54.02-76.123-76.123c20.027 2.225 39.615 6.982 58.416 14.22 6.17 2.378 12.211 5.015 18.125 7.883zm-57.843 90.225 63.113-.49c.543-.004 1.072-.063 1.591-.151l47.161 47.16-73.639.571c-1.406-1.34-2.798-2.699-4.175-4.077-13.102-13.101-24.497-27.543-34.051-43.013zm367.303 43.015c-1.375 1.376-2.772 2.733-4.182 4.075l-73.63-.571 47.16-47.16c.519.087 1.048.147 1.591.151l63.113.49c-9.554 15.47-20.95 29.913-34.052 43.015z"/><path d="m358.519 404.624c-1.237-3.047-4.054-5.354-7.279-5.98-3.226-.671-6.712.404-9.03 2.74-1.86 1.86-2.92 4.43-2.92 7.07 0 .649.06 1.31.189 1.95.625 3.23 2.934 6.052 5.98 7.279 1.2.499 2.525.768 3.82.771 6.897.192 12.075-7.523 9.24-13.83z"/></g></svg>