<svg id="Capa_1" enable-background="new 0 0 512 512" height="512" viewBox="0 0 512 512" width="512" xmlns="http://www.w3.org/2000/svg"><g><path d="m502 271.781h-104.04l-19.289-53h55.679c5.523 0 10-4.477 10-10v-49.2c0-5.523-4.477-10-10-10h-10.971c7.877-9.515 12.621-21.713 12.621-35.002 0-5.523-4.477-10-10-10h-110c-5.523 0-10 4.477-10 10 0 13.295 4.76 25.485 12.642 35.002h-32.642v-60.002c0-5.523-4.477-10-10-10h-10v-7c0-5.523-4.477-10-10-10s-10 4.477-10 10v7h-10c-5.523 0-10 4.477-10 10v60.002h-32.652c7.886-9.517 12.652-21.705 12.652-35.002 0-5.523-4.477-10-10-10h-110c-5.523 0-10 4.477-10 10 0 13.29 4.742 25.488 12.621 35.002h-10.971c-5.523 0-10 4.477-10 10v49.2c0 5.523 4.477 10 10 10h55.679l-19.289 53h-104.04c-5.523 0-10 4.477-10 10v40c0 5.523 4.477 10 10 10h82.203l-37.93 104.22c-1.116 3.066-.666 6.483 1.206 9.156 1.871 2.672 4.929 4.264 8.191 4.264h52.36c4.204 0 7.959-2.629 9.397-6.58l47.699-131.06h165.749l47.699 131.06c1.438 3.951 5.193 6.58 9.397 6.58h52.36c3.263 0 6.32-1.592 8.191-4.264 1.872-2.672 2.321-6.09 1.206-9.156l-6.851-18.823c-1.889-5.19-7.627-7.867-12.817-5.977-5.19 1.889-7.866 7.627-5.977 12.817l1.966 5.403h-31.076l-76.662-210.64h31.077l45.579 125.237c1.478 4.061 5.312 6.583 9.398 6.583 1.135 0 2.291-.195 3.419-.606 5.19-1.889 7.866-7.627 5.977-12.817l-1.964-5.397h82.203c5.523 0 10-4.477 10-10v-40c0-5.523-4.477-10-10-10zm-87.455-147.202c-4.314 14.442-17.72 25-33.545 25h-20c-15.825 0-29.231-10.558-33.545-25zm-168.545-25h20v50h-20zm-61.455 25c-4.313 14.442-17.72 25-33.545 25h-20c-15.825 0-29.231-10.558-33.545-25zm239.805 74.202h-119.61l29.199-29.2h90.411zm-118.695-29.2-49.655 49.656-49.655-49.656zm-218.005 0h90.411l29.199 29.2h-119.61zm-67.65 142.2v-20h86.761l-7.279 20zm89.027 117.64h-31.076l76.661-210.64h31.077zm222.569-137.64h-151.192l26.568-73h20.287l21.669 21.669c1.876 1.875 4.419 2.929 7.071 2.929s5.196-1.054 7.071-2.929l21.669-21.669h20.287zm160.404 20h-79.482l-7.279-20h86.761z"/><path d="m426.922 390.598c12.869 0 12.89-20 0-20-12.869 0-12.891 20 0 20z"/></g></svg>