<svg id="Capa_1" enable-background="new 0 0 512 512" height="512" viewBox="0 0 512 512" width="512" xmlns="http://www.w3.org/2000/svg"><g><path d="m512 327.93c0-12.258-4.48-23.676-11.948-32.551 7.924-19.451 11.948-39.898 11.948-60.879-.01-19.23-2.76-43.94-8.17-73.431-3.82-20.819-7.68-36.689-8.11-38.43-1.247-4.905-6.263-8.558-11.72-7.439-8.92 1.83-18.05 5.02-27.15 9.46-7.73 3.779-15.66 8.58-23.57 14.27-6.5 4.69-13.01 10-19.35 15.8-.26-1.6-.53-3.21-.8-4.779-.84-4.79-4.98-8.271-9.84-8.271-5.587-.163-11.001 5.445-9.86 11.72 1.44 8.221 3.52 23.771 3.52 23.771.863 7.888 11.431 11.726 17.24 5.47 6.75-7.28 17.56-17.96 30.78-27.49 11.4-8.239 22.72-14.239 33.63-17.84 1.83 8.24 4.54 21.09 7.03 35.65 2.92 16.95 6.38 41.38 6.37 61.54 0 16.41-2.83 32.55-8.39 47.95-.008.008-.014.014-.022.021-1.325-.651-2.68-1.252-4.069-1.786.38-2.509.571-5.051.571-7.615 0-27.885-22.632-50.57-50.45-50.57-6.711 0-11.703 2.318-16.42 5.711-1.088.089-2.145.231-3.162.431-7.75-19.448-24.016-34.917-44.435-41.365 1.009-4.751 1.518-9.597 1.518-14.497 0-38.753-31.711-70.28-70.69-70.28-20.205 0-39.446 8.697-52.791 23.575-5.892-1.558-11.97-2.345-18.149-2.345-38.973 0-70.68 31.527-70.68 70.279 0 2.308.114 4.613.342 6.906-19.316 2.875-36.094 13.556-46.992 28.694-7.724-4.635-16.581-7.11-25.82-7.11-16.645 0-31.428 8.127-40.622 20.625-.149.191-.302.37-.448.575-3.04-11.261-4.59-23.16-4.6-35.36-.01-24.45 6.26-46.11 11.51-59.97 2.3-6.08 4.87-11.931 7.63-17.38 9.71 3.329 29.02 10.88 49.56 24.069 5.326 3.649 13.95.478 15.21-6.47 7.16-36.31 23.1-64.3 35.2-81.39 8.68-12.019 13.717-17.633 20.78-24.851 3.1.91 6.25 2.15 9.36 3.69 9.57 4.75 17.91 11.81 24.79 20.97 2.995 4.018 9.242 5.398 13.89 2.07.9-.66 5.72-4.311 12.63-11.54 9.49-9.9 18.22-21.561 25.97-34.66 3.38 1.91 6.63 4.2 9.67 6.81 11.63 10 19.59 23.7 23.67 40.721 1.152 5.276 7.304 9.17 13.08 7.109 13.557-5.088 27.737-14.018 40.4-22.04 4.84 5.771 9.34 11.84 13.4 18.04 2.766 4.291 9.02 6.008 13.83 2.9 4.283-2.687 5.974-9.016 2.91-13.83 0 0 0 0 0-.01-6.16-9.41-13.21-18.5-20.98-26.99-3.023-3.333-8.685-4.438-13.01-1.521-5.789 4.009-24.047 15.57-33.53 20.24-7.36-20.81-19.22-33.649-27.88-40.76-11.19-9.22-21.06-12.56-22.92-13.13 0 0-1.9-.42-2.85-.42-3.7 0-7.08 2.02-8.83 5.28-9.31 17.399-19.16 29.579-25.78 36.739-1.53 1.66-3.08 3.25-4.6 4.73-7.77-8.24-17.07-15-26.89-19.55-9.65-4.46-16.78-5.53-18.11-5.7-2.78-.34-5.61.52-7.74 2.35-6.647 3.34-40.477 46.826-46.87 64.21-6.78 13.8-12.18 28.24-16.05 42.92-25.4-14.35-46.5-20.52-50.47-21.62-.07-.02-.11-.029-.13-.029-3.333-1.118-8.97.721-11.03 4.39-6.916 10.238-19.321 41.644-22.1 58.85-2.44 12.011-3.69 24.04-3.72 35.771 0 23.797 5.148 46.38 15.285 67.172.083 1.737.247 3.464.506 5.174-19.107 7.351-32.482 26.049-32.482 47.246 0 18.121 9.627 34.465 24.568 43.419-4.138 7.431-6.338 15.835-6.338 24.581 0 27.885 22.636 50.57 50.46 50.57 3.171 0 5.996-.218 8.574-.563l-1.867 46.063h-65.397c-5.523 0-10 4.478-10 10s4.477 10 10 10h492c5.523 0 10-4.478 10-10s-4.477-10-10-10h-65.403l-1.895-46.068c2.587.348 5.424.568 8.608.568 27.824 0 50.46-22.686 50.46-50.57 0-8.746-2.2-17.15-6.338-24.581 14.941-8.954 24.568-25.298 24.568-43.419zm-416.599 164.07 1.913-50.555c8.693-1.666 17.68 1.397 25.599 5.829l1.686 44.726zm-11.375-67.992c-4.891 1.337-9.115 2.492-15.336 2.492-16.796 0-30.46-13.714-30.46-30.57 0-8.198 3.193-15.896 8.991-21.679 2.537-2.53 3.527-6.225 2.594-9.684-.933-3.46-3.645-6.156-7.109-7.068-13.369-3.52-22.706-15.679-22.706-29.569 0-15.106 11.214-28.112 26.084-30.252 3.018-.435 5.672-2.222 7.21-4.854s1.791-5.822.688-8.664c-1.375-3.542-2.072-7.273-2.072-11.09 0-16.856 13.66-30.57 30.45-30.57 5.953 0 11.577 1.938 16.452 5.118.013-.038.025-.075.002.001-2.424 7.088-3.814 14.909-3.814 22.801 0 17.994 6.918 35.155 19.202 48.138-4.19 10.278-6.382 21.383-6.382 32.522 0 35.934 22.711 67.602 55.907 80.743-.257-.103-.328-.129.485.199-4.458 1.621-9.206 2.478-14.042 2.478-8.075 0-13.188-2.554-19.661-5.786-13.79-8.454-33.059-9.493-46.483-4.706zm119.006 67.992h-58.406l-1.446-37.946c17.472 2.317 36.561-4.218 49.299-16.583 4.805.172 11.581-.297 16.648-1.336zm20.118 0 10.791-98.915c.294-2.699-.521-5.401-2.259-7.486l-34.295-41.155 8.708-9.143 38.354 19.604c4.032 2.061 8.945 1.155 11.977-2.207l39.687-44.001 10.737 8.59-31.812 51.679c-1.075 1.745-1.586 3.778-1.467 5.824l6.829 117.21zm70.57-115.231 34.796-56.526c2.647-4.3 1.674-9.897-2.269-13.051l-25-20c-4.134-3.308-10.128-2.818-13.673 1.111l-40.858 45.299-38.165-19.506c-3.943-2.017-8.74-1.197-11.792 2.008l-20 21c-3.503 3.678-3.692 9.396-.441 13.298l37.28 44.737-2.157 19.77-.004.006c-4.43 1.423-9.919 2.585-16.697 2.585-36.9 0-66.92-29.796-66.92-66.42 0-10.654 2.468-20.832 7.334-30.249 2.137-4.134 1.139-9.195-2.407-12.21-11.278-9.589-17.747-23.513-17.747-38.201 0-27.724 22.735-50.279 50.68-50.279 6.399.901 13.109-5.581 11-12.654-1.228-4.391-1.85-8.925-1.85-13.477 0-27.724 22.735-50.279 50.68-50.279 6.231 0 12.31 1.109 18.067 3.297 4.227 1.607 9.006.177 11.656-3.488 9.526-13.174 24.934-21.039 41.217-21.039 27.951 0 50.69 22.556 50.69 50.28 0 6.244-1.158 12.369-3.442 18.205-2.223 5.242 1.364 12.763 7.9 13.544 24.743 3.528 43.402 24.92 43.402 49.76 0 22.838-15.528 42.836-37.763 48.633-7.082 1.619-10.041 11.394-4.506 16.789 9.621 9.508 14.919 22.157 14.919 35.618 0 27.724-22.735 50.279-50.68 50.279-8.833 0-15.295-1.463-21.755-3.177zm73.654 115.231h-66.94l-4.002-68.676c3.953.876 8.292 1.617 13.235 2.001 11.113 18.136 30.589 29.174 52.163 29.174 2.49 0 4.809-.163 6.99-.446zm20.027 0 1.685-44.726c7.024-3.884 16.609-7.661 25.599-5.831l1.914 50.557zm81.893-134.501c-7.05 1.63-10.004 11.353-4.515 16.752 5.798 5.782 8.991 13.48 8.991 21.679-.559 24.835-24.211 35.447-44.678 28.383-37.455-11.438-45.663 10.01-67.262 10.188-10.631 0-20.499-3.996-27.969-10.926 30.835-7.555 53.789-35.285 53.789-68.244 0-13.816-3.98-27.015-11.404-38.314 23.384-11.767 38.754-35.837 38.754-62.727 0-2.597-.158-5.164-.442-7.699-.001-.032.013-.063.01-.095 4.55-2.627 9.675-3.996 15.072-3.996 16.79 0 30.45 13.714 30.45 30.57 0 3.816-.697 7.548-2.072 11.09-2.202 5.235 1.379 12.729 7.898 13.518 14.87 2.139 26.084 15.145 26.084 30.252 0 13.89-9.337 26.049-22.706 29.569z"/><circle cx="391.909" cy="108.195" r="10"/></g></svg>